<?xml version="1.0" encoding="utf-8"?>
<svg xmlns="http://www.w3.org/2000/svg" width="740" height="380"
     viewBox="0 0 740 380" font-family="monospace,Courier New">
<text x="370" y="30" text-anchor="middle" font-size="14" font-weight="bold" fill="#222">Sequential vs Random Read Bandwidth</text>
<text x="370" y="47" text-anchor="middle" font-size="11" fill="#555">Intel i9-13900HX · Ubuntu 22.04 · VirtualBox VM</text>
<line x1="60" y1="320.0" x2="710" y2="320.0" stroke="#ddd" stroke-width="1" stroke-dasharray="4,3"/>
<text x="55" y="324.0" text-anchor="end" font-size="9" fill="#888">0.1</text>
<line x1="60" y1="253.8" x2="710" y2="253.8" stroke="#ddd" stroke-width="1" stroke-dasharray="4,3"/>
<text x="55" y="257.8" text-anchor="end" font-size="9" fill="#888">1</text>
<line x1="60" y1="187.5" x2="710" y2="187.5" stroke="#ddd" stroke-width="1" stroke-dasharray="4,3"/>
<text x="55" y="191.5" text-anchor="end" font-size="9" fill="#888">10</text>
<line x1="60" y1="121.2" x2="710" y2="121.2" stroke="#ddd" stroke-width="1" stroke-dasharray="4,3"/>
<text x="55" y="125.2" text-anchor="end" font-size="9" fill="#888">100</text>
<line x1="60" y1="55.0" x2="710" y2="55.0" stroke="#ddd" stroke-width="1" stroke-dasharray="4,3"/>
<text x="55" y="59.0" text-anchor="end" font-size="9" fill="#888">1000</text>
<text x="12" y="187" text-anchor="middle" font-size="11" fill="#555" transform="rotate(-90,12,187)">GB/s (log scale)</text>
<rect x="85" y="115.7" width="54" height="204.3" fill="#2196F3" rx="2"/>
<text x="112" y="111.7" text-anchor="middle" font-size="9" fill="#2196F3" font-weight="bold">121.2</text>
<rect x="143" y="237.5" width="54" height="82.5" fill="#E91E63" rx="2"/>
<text x="170" y="233.5" text-anchor="middle" font-size="9" fill="#E91E63" font-weight="bold">1.76</text>
<text x="141" y="97.7" text-anchor="middle" font-size="10" fill="#333" font-weight="bold">69×</text>
<text x="141" y="336" text-anchor="middle" font-size="11" fill="#333">L1 Cache</text>
<rect x="247" y="123.7" width="54" height="196.3" fill="#2196F3" rx="2"/>
<text x="274" y="119.7" text-anchor="middle" font-size="9" fill="#2196F3" font-weight="bold">91.9</text>
<rect x="305" y="225.1" width="54" height="94.9" fill="#E91E63" rx="2"/>
<text x="332" y="221.1" text-anchor="middle" font-size="9" fill="#E91E63" font-weight="bold">2.71</text>
<text x="303" y="105.7" text-anchor="middle" font-size="10" fill="#333" font-weight="bold">34×</text>
<text x="303" y="336" text-anchor="middle" font-size="11" fill="#333">L2 Cache</text>
<rect x="409" y="203.0" width="54" height="117.0" fill="#2196F3" rx="2"/>
<text x="436" y="199.0" text-anchor="middle" font-size="9" fill="#2196F3" font-weight="bold">5.8</text>
<rect x="467" y="246.9" width="54" height="73.1" fill="#E91E63" rx="2"/>
<text x="494" y="242.9" text-anchor="middle" font-size="9" fill="#E91E63" font-weight="bold">1.27</text>
<text x="465" y="185.0" text-anchor="middle" font-size="10" fill="#333" font-weight="bold">5×</text>
<text x="465" y="336" text-anchor="middle" font-size="11" fill="#333">L3 Cache</text>
<rect x="571" y="216.9" width="54" height="103.1" fill="#2196F3" rx="2"/>
<text x="598" y="212.9" text-anchor="middle" font-size="9" fill="#2196F3" font-weight="bold">3.6</text>
<rect x="629" y="304.7" width="54" height="15.3" fill="#E91E63" rx="2"/>
<text x="656" y="300.7" text-anchor="middle" font-size="9" fill="#E91E63" font-weight="bold">0.17</text>
<text x="627" y="198.9" text-anchor="middle" font-size="10" fill="#333" font-weight="bold">21×</text>
<text x="627" y="336" text-anchor="middle" font-size="11" fill="#333">RAM</text>
<line x1="60" y1="320" x2="710" y2="320" stroke="#999" stroke-width="1.5"/>
<rect x="580" y="65" width="14" height="14" fill="#2196F3" rx="2"/>
<text x="598" y="76" font-size="11" fill="#333">Sequential</text>
<rect x="580" y="85" width="14" height="14" fill="#E91E63" rx="2"/>
<text x="598" y="96" font-size="11" fill="#333">Random</text>
</svg>