<?xml version="1.0" encoding="utf-8"?>
<svg xmlns="http://www.w3.org/2000/svg" width="820" height="380"
     viewBox="0 0 820 380" font-family="monospace,Courier New">
<text x="410" y="30" text-anchor="middle" font-size="14" font-weight="bold" fill="#222">Storage Hierarchy Latency (log scale)</text>
<text x="410" y="47" text-anchor="middle" font-size="11" fill="#555">Intel i9-13900HX · Ubuntu 22.04 · VirtualBox VM</text>
<line x1="170.0" y1="55" x2="170.0" y2="335" stroke="#ccc" stroke-width="1" stroke-dasharray="4,3"/>
<text x="170.0" y="350" text-anchor="middle" font-size="9" fill="#888">1 ns</text>
<line x1="260.0" y1="55" x2="260.0" y2="335" stroke="#ccc" stroke-width="1" stroke-dasharray="4,3"/>
<text x="260.0" y="350" text-anchor="middle" font-size="9" fill="#888">10 ns</text>
<line x1="350.0" y1="55" x2="350.0" y2="335" stroke="#ccc" stroke-width="1" stroke-dasharray="4,3"/>
<text x="350.0" y="350" text-anchor="middle" font-size="9" fill="#888">100 ns</text>
<line x1="440.0" y1="55" x2="440.0" y2="335" stroke="#ccc" stroke-width="1" stroke-dasharray="4,3"/>
<text x="440.0" y="350" text-anchor="middle" font-size="9" fill="#888">1 µs</text>
<line x1="530.0" y1="55" x2="530.0" y2="335" stroke="#ccc" stroke-width="1" stroke-dasharray="4,3"/>
<text x="530.0" y="350" text-anchor="middle" font-size="9" fill="#888">10 µs</text>
<line x1="620.0" y1="55" x2="620.0" y2="335" stroke="#ccc" stroke-width="1" stroke-dasharray="4,3"/>
<text x="620.0" y="350" text-anchor="middle" font-size="9" fill="#888">100 µs</text>
<line x1="710.0" y1="55" x2="710.0" y2="335" stroke="#ccc" stroke-width="1" stroke-dasharray="4,3"/>
<text x="710.0" y="350" text-anchor="middle" font-size="9" fill="#888">1 ms</text>
<rect x="170.0" y="73" width="54.2" height="34" fill="#2196F3" rx="3"/>
<text x="162" y="94" text-anchor="end" font-size="11" fill="#333">L1 Cache (32 KB)</text>
<text x="230.2" y="94" font-size="11" font-weight="bold" fill="#2196F3">4.0 ns</text>
<rect x="170.0" y="125" width="114.3" height="34" fill="#4CAF50" rx="3"/>
<text x="162" y="146" text-anchor="end" font-size="11" fill="#333">L2 Cache (512 KB)</text>
<text x="290.3" y="146" font-size="11" font-weight="bold" fill="#4CAF50">18.6 ns</text>
<rect x="170.0" y="177" width="186.0" height="34" fill="#FF9800" rx="3"/>
<text x="162" y="198" text-anchor="end" font-size="11" fill="#333">L3 Cache (8 MB)</text>
<text x="362.0" y="198" font-size="11" font-weight="bold" fill="#FF9800">116.6 ns</text>
<rect x="170.0" y="229" width="228.3" height="34" fill="#E91E63" rx="3"/>
<text x="162" y="250" text-anchor="end" font-size="11" fill="#333">Main Memory (RAM)</text>
<text x="404.3" y="250" font-size="11" font-weight="bold" fill="#E91E63">344.0 ns</text>
<rect x="170.0" y="281" width="473.0" height="34" fill="#795548" rx="3"/>
<text x="162" y="302" text-anchor="end" font-size="11" fill="#333">SSD Disk (random)</text>
<text x="649.0" y="302" font-size="11" font-weight="bold" fill="#795548">180 µs</text>
<line x1="170" y1="335" x2="710" y2="335" stroke="#999" stroke-width="1.5"/>
<text x="440" y="376" text-anchor="middle" font-size="11" fill="#555">Latency (ns, log scale →)</text>
</svg>